<?xml version="1.0" encoding="UTF-8"?> <svg xmlns="http://www.w3.org/2000/svg" xmlns:xlink="http://www.w3.org/1999/xlink" viewBox="0 0 203.1 51.82"><defs><style>.cls-1{fill:#888a8c;}.cls-2{fill:url(#linear-gradient);}.cls-3{fill:url(#linear-gradient-2);}.cls-4{fill:url(#linear-gradient-3);}.cls-5{fill:url(#linear-gradient-4);}</style><linearGradient id="linear-gradient" x1="25.83" y1="-220.59" x2="69.35" y2="-254.51" gradientTransform="translate(-14.1 274.1)" gradientUnits="userSpaceOnUse"><stop offset="0.01" stop-color="#c96d6c"></stop><stop offset="0.12" stop-color="#ce7977"></stop><stop offset="0.24" stop-color="#d1817e"></stop><stop offset="0.28" stop-color="#cc7175"></stop><stop offset="0.36" stop-color="#c15060"></stop><stop offset="0.46" stop-color="#b83550"></stop><stop offset="0.56" stop-color="#b22043"></stop><stop offset="0.67" stop-color="#ad113a"></stop><stop offset="0.8" stop-color="#aa0835"></stop><stop offset="1" stop-color="#a90533"></stop></linearGradient><linearGradient id="linear-gradient-2" x1="121.71" y1="6.21" x2="143.89" y2="-71.42" gradientTransform="translate(-40.21 35.65) scale(0.54)" gradientUnits="userSpaceOnUse"><stop offset="0.01" stop-color="#c56363"></stop><stop offset="0.26" stop-color="#d1807d"></stop><stop offset="0.27" stop-color="#d1817e"></stop><stop offset="1" stop-color="#a90533"></stop></linearGradient><linearGradient id="linear-gradient-3" x1="74.96" y1="-18.68" x2="143.97" y2="-66.68" gradientTransform="translate(-39.62 36.82) scale(0.54)" gradientUnits="userSpaceOnUse"><stop offset="0" stop-color="#89a9d1"></stop><stop offset="0.02" stop-color="#8cabd2"></stop><stop offset="0.12" stop-color="#97b2d7"></stop><stop offset="0.24" stop-color="#9ab4d8"></stop><stop offset="0.32" stop-color="#8aabd2"></stop><stop offset="0.49" stop-color="#6d99c8"></stop><stop offset="0.67" stop-color="#578dc0"></stop><stop offset="0.84" stop-color="#4a86bc"></stop><stop offset="1" stop-color="#4683ba"></stop></linearGradient><linearGradient id="linear-gradient-4" x1="213.44" y1="-174.81" x2="165.22" y2="-174.81" gradientTransform="translate(-166.45 198.81)" gradientUnits="userSpaceOnUse"><stop offset="0.01" stop-color="#89a9d1"></stop><stop offset="0.18" stop-color="#7fa3cd"></stop><stop offset="0.48" stop-color="#6394c4"></stop><stop offset="0.74" stop-color="#4683ba"></stop><stop offset="1" stop-color="#4683ba"></stop></linearGradient></defs><g id="Layer_2" data-name="Layer 2"><g id="Layer_1-2" data-name="Layer 1"><path class="cls-1" d="M65.55,21.38l2.73,7.26H62.71Zm-6.4,12.81h1.44l1.71-4.41h6.44l1.72,4.41h1.45L66.36,20H64.85Z"></path><path class="cls-1" d="M83.15,24.32a4.3,4.3,0,0,0-4.34-3.43c-3.75,0-5.33,3.13-5.33,6.22s1.58,6.23,5.33,6.23c2.61,0,4.28-2,4.54-4.55h1.34c-.37,3.47-2.57,5.69-5.88,5.69-4.46,0-6.68-3.5-6.68-7.37s2.22-7.37,6.68-7.37c2.68,0,5.33,1.6,5.69,4.58Z"></path><path class="cls-1" d="M86.72,20h2l4.9,12.41L98.47,20h2V34.19H99.11V22h0L94.23,34.19H93L88.1,22h0V34.19H86.72Z"></path><path class="cls-1" d="M105.33,29.49c0,1.88,1.47,2.62,3.13,2.62,1.09,0,2.76-.32,2.76-1.76S109.1,28.56,107,28s-4.23-1.37-4.23-4c0-2.9,2.74-4.28,5.3-4.28,3,0,5.67,1.29,5.67,4.56h-3c-.09-1.71-1.31-2.14-2.8-2.14-1,0-2.13.41-2.13,1.6s.67,1.23,4.22,2.14c1,.26,4.2.91,4.2,4.13,0,2.59-2,4.53-5.89,4.53-3.13,0-6.06-1.54-6-5Z"></path><path class="cls-1" d="M116.07,20h3.12V34.19h-3.12Z"></path><path class="cls-1" d="M132.15,32.58a4.77,4.77,0,0,1-3.88,1.94c-4.38,0-7-3.27-7-7.35s2.58-7.47,7-7.47a5.68,5.68,0,0,1,6,5h-3a2.91,2.91,0,0,0-3-2.38c-2.8,0-3.85,2.38-3.85,4.86s1,4.74,3.85,4.74a3.07,3.07,0,0,0,3.37-3.05H128.5V26.54h5.95v7.65h-2Z"></path><path class="cls-1" d="M146.8,32.58a4.78,4.78,0,0,1-3.88,1.94c-4.38,0-7-3.27-7-7.35s2.58-7.47,7-7.47a5.68,5.68,0,0,1,6,5h-3a2.91,2.91,0,0,0-3-2.38c-2.8,0-3.85,2.38-3.85,4.86s1.05,4.74,3.85,4.74a3.05,3.05,0,0,0,3.36-3.05h-3.13V26.54h5.95v7.65h-2Z"></path><path class="cls-1" d="M154.73,22.45h3.41c1.39,0,2.14.6,2.14,2s-.75,2-2.14,2h-3.41Zm-3.11,11.74h3.11V28.66h3.11c1.57,0,2.14.65,2.36,2.14a15.6,15.6,0,0,0,.5,3.39h3.11c-.56-.8-.53-2.46-.6-3.35-.1-1.43-.53-2.92-2.06-3.31v0a3.48,3.48,0,0,0,2.24-3.55A3.89,3.89,0,0,0,159.25,20h-7.63Z"></path><path class="cls-1" d="M171.34,23.52h0l1.79,5.19H169.5Zm-6.92,10.67h3.16l1.1-3.16H174l1.07,3.16h3.23L173,20H169.8Z"></path><path class="cls-1" d="M181.83,22.45h2.42c1.44,0,2.73.32,2.73,2.12s-1.29,2.12-2.73,2.12h-2.42Zm-3.12,11.74h3.12V29.11h3.27c3.52,0,4.9-2.24,4.9-4.54S188.62,20,185.1,20h-6.39Z"></path><path class="cls-1" d="M191.14,20h3.12v5.44H200V20h3.11V34.19H200V28.08h-5.73v6.11h-3.12Z"></path><path class="cls-2" d="M47.76,13.24h0c2.58,4.07-4.49,13.6-15.9,21.39S9,45.54,6.15,41.65h0C13.6,52.59,29,55.09,40.47,47.24S55.23,24.18,47.76,13.24Z"></path><path class="cls-3" d="M47.94,13.68C45.41,10,35.34,12.36,24.75,19c7.41-3.79,13.89-4.78,15.77-2C42.91,20.48,37,28.77,27.24,35.46c-8.31,5.72-16.69,8.42-20.45,6.88,3.21,3.39,14.31.26,25.37-7.28C43.61,27.25,50.68,17.68,47.94,13.68Z"></path><path class="cls-4" d="M4,38.58H4C1.42,34.5,8.49,25,19.91,17.18s22.87-10.91,25.71-7h0C38.17-.77,22.8-3.27,11.3,4.57S-3.46,27.64,4,38.58Z"></path><path class="cls-5" d="M3.82,38.14c2.54,3.7,12.61,1.31,23.2-5.28-7.41,3.8-13.89,4.79-15.77,2C8.86,31.34,14.8,23.05,24.53,16.35,32.84,10.64,41.22,7.94,45,9.48c-3.21-3.4-14.31-.26-25.37,7.28C8.16,24.57,1.09,34.14,3.82,38.14Z"></path></g></g></svg> 