<?xml version="1.0" encoding="utf-8"?>
<!-- Generator: Adobe Illustrator 25.4.1, SVG Export Plug-In . SVG Version: 6.00 Build 0)  -->
<svg version="1.1" id="Layer_1" xmlns="http://www.w3.org/2000/svg" xmlns:xlink="http://www.w3.org/1999/xlink" x="0px" y="0px"
	 viewBox="0 0 203.1 51.8" style="enable-background:new 0 0 203.1 51.8;" xml:space="preserve">
<style type="text/css">
	.st0{fill:#FFFFFF;}
	.st1{fill:url(#SVGID_1_);}
	.st2{fill:url(#SVGID_00000142140075960891635820000006634429515773209233_);}
	.st3{fill:url(#SVGID_00000158019434487624200540000009807166905993115063_);}
	.st4{fill:url(#SVGID_00000157283861100960739220000013272954377401176967_);}
</style>
<path class="st0" d="M65.6,21.4l2.7,7.3h-5.6L65.6,21.4z M59.2,34.2h1.4l1.7-4.4h6.4l1.7,4.4h1.4L66.4,20h-1.5L59.2,34.2z"/>
<path class="st0" d="M83.2,24.3c-0.4-2-2.3-3.5-4.3-3.4c-3.8,0-5.3,3.1-5.3,6.2s1.6,6.2,5.3,6.2c2.6,0,4.3-2,4.5-4.5h1.3
	c-0.4,3.5-2.6,5.7-5.9,5.7c-4.5,0-6.7-3.5-6.7-7.4s2.2-7.4,6.7-7.4c2.7,0,5.3,1.6,5.7,4.6L83.2,24.3z"/>
<path class="st0" d="M86.7,20h2l4.9,12.4L98.5,20h2v14.2h-1.4V22l0,0l-4.9,12.2H93L88.1,22l0,0v12.2h-1.4V20z"/>
<path class="st0" d="M105.3,29.5c0,1.9,1.5,2.6,3.1,2.6c1.1,0,2.8-0.3,2.8-1.8s-2.1-1.8-4.2-2.4s-4.2-1.4-4.2-4
	c0-2.9,2.7-4.3,5.3-4.3c3,0,5.7,1.3,5.7,4.6h-3c-0.1-1.7-1.3-2.1-2.8-2.1c-1,0-2.1,0.4-2.1,1.6s0.7,1.2,4.2,2.1
	c1,0.3,4.2,0.9,4.2,4.1c0,2.6-2,4.5-5.9,4.5c-3.1,0-6.1-1.5-6-5L105.3,29.5z"/>
<path class="st0" d="M116.1,20h3.1v14.2h-3.1V20z"/>
<path class="st0" d="M132.1,32.6c-0.9,1.2-2.4,2-3.9,1.9c-4.4,0-7-3.3-7-7.4s2.6-7.5,7-7.5c3-0.2,5.6,2,6,5h-3
	c-0.3-1.4-1.5-2.4-3-2.4c-2.8,0-3.8,2.4-3.8,4.9s1,4.7,3.8,4.7c1.7,0.2,3.2-1.1,3.4-2.8c0-0.1,0-0.2,0-0.3h-3.1v-2.3h5.9v7.7h-2
	L132.1,32.6z"/>
<path class="st0" d="M146.8,32.6c-0.9,1.2-2.4,2-3.9,1.9c-4.4,0-7-3.3-7-7.4s2.6-7.5,7-7.5c3-0.2,5.6,2,6,5h-3
	c-0.3-1.4-1.5-2.4-3-2.4c-2.8,0-3.9,2.4-3.9,4.9s1.1,4.7,3.9,4.7c1.7,0.2,3.2-1,3.3-2.7c0-0.1,0-0.2,0-0.3h-3.1v-2.3h5.9v7.7h-2
	L146.8,32.6z"/>
<path class="st0" d="M154.7,22.5h3.4c1.4,0,2.1,0.6,2.1,2s-0.8,2-2.1,2h-3.4V22.5z M151.6,34.2h3.1v-5.5h3.1c1.6,0,2.1,0.6,2.4,2.1
	c0,1.1,0.2,2.3,0.5,3.4h3.1c-0.6-0.8-0.5-2.5-0.6-3.4c-0.1-1.4-0.5-2.9-2.1-3.3l0,0c1.5-0.5,2.4-2,2.2-3.5c0.1-2.1-1.6-3.9-3.8-4
	c-0.1,0-0.2,0-0.3,0h-7.6V34.2z"/>
<path class="st0" d="M171.3,23.5L171.3,23.5l1.8,5.2h-3.6L171.3,23.5z M164.4,34.2h3.2l1.1-3.2h5.3l1.1,3.2h3.2L173,20h-3.2
	L164.4,34.2z"/>
<path class="st0" d="M181.8,22.5h2.4c1.4,0,2.7,0.3,2.7,2.1s-1.3,2.1-2.7,2.1h-2.4V22.5z M178.7,34.2h3.1v-5.1h3.3
	c3.5,0,4.9-2.2,4.9-4.5s-1.4-4.6-4.9-4.6h-6.4V34.2z"/>
<path class="st0" d="M191.1,20h3.1v5.4h5.7V20h3.1v14.2H200v-6.1h-5.7v6.1h-3.1L191.1,20z"/>
<linearGradient id="SVGID_1_" gradientUnits="userSpaceOnUse" x1="25.8268" y1="272.484" x2="69.3468" y2="306.404" gradientTransform="matrix(1 0 0 -1 -14.1 325.9898)">
	<stop  offset="1.000000e-02" style="stop-color:#C96D6C"/>
	<stop  offset="0.12" style="stop-color:#CE7977"/>
	<stop  offset="0.24" style="stop-color:#D1817E"/>
	<stop  offset="0.28" style="stop-color:#CC7175"/>
	<stop  offset="0.36" style="stop-color:#C15060"/>
	<stop  offset="0.46" style="stop-color:#B83550"/>
	<stop  offset="0.56" style="stop-color:#B22043"/>
	<stop  offset="0.67" style="stop-color:#AD113A"/>
	<stop  offset="0.8" style="stop-color:#AA0835"/>
	<stop  offset="1" style="stop-color:#A90533"/>
</linearGradient>
<path class="st1" d="M47.8,13.2L47.8,13.2c2.6,4.1-4.5,13.6-15.9,21.4S9,45.5,6.2,41.7l0,0c7.5,10.9,22.9,13.4,34.3,5.6
	S55.2,24.2,47.8,13.2z"/>
<linearGradient id="SVGID_00000177467487387512192810000004452470625034772131_" gradientUnits="userSpaceOnUse" x1="286.832" y1="-290.519" x2="309.012" y2="-212.889" gradientTransform="matrix(0.54 0 0 -0.54 -129.91 -118.0295)">
	<stop  offset="1.000000e-02" style="stop-color:#C56363"/>
	<stop  offset="0.26" style="stop-color:#D1807D"/>
	<stop  offset="0.27" style="stop-color:#D1817E"/>
	<stop  offset="1" style="stop-color:#A90533"/>
</linearGradient>
<path style="fill:url(#SVGID_00000177467487387512192810000004452470625034772131_);" d="M47.9,13.7C45.4,10,35.3,12.4,24.8,19
	c7.4-3.8,13.9-4.8,15.8-2c2.4,3.5-3.5,11.8-13.3,18.5c-8.3,5.7-16.7,8.4-20.5,6.9c3.2,3.4,14.3,0.3,25.4-7.3
	C43.6,27.2,50.7,17.7,47.9,13.7z"/>
<linearGradient id="SVGID_00000103259034500185310180000007966593188432207747_" gradientUnits="userSpaceOnUse" x1="240.932" y1="-265.7117" x2="309.942" y2="-217.7117" gradientTransform="matrix(0.54 0 0 -0.54 -129.32 -116.8595)">
	<stop  offset="0" style="stop-color:#89A9D1"/>
	<stop  offset="2.000000e-02" style="stop-color:#8CABD2"/>
	<stop  offset="0.12" style="stop-color:#97B2D7"/>
	<stop  offset="0.24" style="stop-color:#9AB4D8"/>
	<stop  offset="0.32" style="stop-color:#8AABD2"/>
	<stop  offset="0.49" style="stop-color:#6D99C8"/>
	<stop  offset="0.67" style="stop-color:#578DC0"/>
	<stop  offset="0.84" style="stop-color:#4A86BC"/>
	<stop  offset="1" style="stop-color:#4683BA"/>
</linearGradient>
<path style="fill:url(#SVGID_00000103259034500185310180000007966593188432207747_);" d="M4,38.6L4,38.6C1.4,34.5,8.5,25,19.9,17.2
	s22.9-10.9,25.7-7l0,0c-7.5-11-22.8-13.5-34.3-5.6S-3.5,27.6,4,38.6z"/>
<linearGradient id="SVGID_00000001656238043264873240000016792835195033235591_" gradientUnits="userSpaceOnUse" x1="213.44" y1="226.7012" x2="165.22" y2="226.7012" gradientTransform="matrix(1 0 0 -1 -166.45 250.6998)">
	<stop  offset="1.000000e-02" style="stop-color:#89A9D1"/>
	<stop  offset="0.18" style="stop-color:#7FA3CD"/>
	<stop  offset="0.48" style="stop-color:#6394C4"/>
	<stop  offset="0.74" style="stop-color:#4683BA"/>
	<stop  offset="1" style="stop-color:#4683BA"/>
</linearGradient>
<path style="fill:url(#SVGID_00000001656238043264873240000016792835195033235591_);" d="M3.8,38.1c2.5,3.7,12.6,1.3,23.2-5.3
	c-7.4,3.8-13.9,4.8-15.8,2C8.9,31.3,14.8,23,24.5,16.4c8.3-5.7,16.7-8.4,20.5-6.9c-3.2-3.4-14.3-0.3-25.4,7.3
	C8.2,24.6,1.1,34.1,3.8,38.1z"/>
</svg>
