<?xml version="1.0" encoding="UTF-8" standalone="no"?>
<svg xmlns="http://www.w3.org/2000/svg" width="64" height="64" preserveAspectRatio="xMidYMid" viewBox="0 0 6.5536 6.5536">
  <path fill="#e6e6e6" stroke-width=".02724766" d="M3.2811244.01397064l-.8007719.80077195h.6472219V2.6845866l.15355.15355.1535502-.15355V.81474259h.6472218zM.97684131.96849903V2.100931l.45755439-.4575547 1.3223057 1.3220995h.2171165v-.217323L1.6517187 1.4260536l.4575544-.45755457zm1.34975469 0l-.4575544.45755457 1.1047763 1.1047762V.96849903zm1.2616285 0V2.5310362l1.1049829-1.1049826-.4575545-.45755457zm.8647512 0l.4575545.45755457-1.3223057 1.3223056v.2171166h.217323l1.3220993-1.3220995.4577608.4577611V.96849903zm-3.01858.89199367l-.45755439.4575548v.6474283H2.5395849zm3.6932511 0L4.022664 2.9654758h1.5627436v-.6472219zm-4.30435556.6111048l-.80097833.8009785.80097833.8009781v-.6472217H2.6929286l.1537564-.1537564-.1535501-.1535501H.82329124zm4.91566636.0002065v.6472219H3.8691139l-.1535501.1535501.1537565.1537564h1.8696373v.6472217l.800772-.8009781zM.97684131 3.5798824v.647222l.45776079.4577606 1.1047764-1.1049826zm1.77965369 0L1.4346021 4.9019815l-.45776079-.4577606v1.1326382H2.1092731l-.4575544-.4575545 1.3220992-1.3220994v-.2173228zm.8317295 0v.2171164l1.3223057 1.3223058-.4575545.4575545h1.1324319V4.4442209l-.4577608.4577606-1.3218929-1.3220991zm.4346459 0L5.1276468 4.684865l.4577608-.4577606v-.647222zm-.741746.1273393l-.15355.15355v1.8698438h-.6472219l.8007719.800772.800772-.800772h-.6472218V3.8607717zm.3071001.3071001v1.5625373h.6474284l.4575545-.4575545zm-.6144066.0002064L1.8690416 5.1193046l.4575544.4575545h.6472219z"/>
</svg>
