<?xml version="1.0" encoding="UTF-8" standalone="no"?>
<svg xmlns="http://www.w3.org/2000/svg" width="64" height="64" preserveAspectRatio="xMinYMin meet" viewBox="0 0 7.3735373 7.3728">
  <path fill="#e6e6e6" stroke-width=".22188389" d="M3.67641758.01620162c-.11520864.0014763-.2301947.03712228-.3465346.10576058-.34620773.20417638-2.0795722 1.19722894-2.59608461 1.49639962-.21271465.12313992-.31633051.31153022-.31638163.55648063C.41708441 3.18345398.41752404 4.1920828.41719172 5.20072002c.0000511.12076241.02523212.22774852.07628262.31998202.0524821.09486701.13229735.17409798.24009901.2364986.516538.2991708 2.24995362 1.2921721 2.59608463 1.4963996.2327821.13735322.46014974.14236043.69464447.00697572.86954547-.502069 1.740332-1.00206821 2.610261-1.50360032.10780146-.06237517.18739188-.1417089.23987395-.2364986.05097292-.09223305.07623259-.19919416.07628259-.31998203 0 0 .00010738-2.01679044-.00022501-3.02542755-.00005115-.12347219-.02648068-.23241816-.07988294-.3260576-.0524565-.09208003-.13112558-.16940286-.23649872-.23042303C5.76431219 1.11705465 4.89382234.6170299 4.02430245.1149865 3.90709339.04731968 3.79162633.0147253 3.67641758.01620162zm.00765073 1.50180014c.80264571 0 1.50336275.43599864 1.8787129 1.08393336l-.94441936.54387949c-.1871512-.32179453-.53527134-.53847895-.93429354-.53847895-.59667954 0-1.08055801.48387825-1.08055801 1.08055814a1.0752557 1.0752557 0 0 0 .14243922.5360035c.1862309.3251177.53651505.5443295.9381188.5443295.40408378 0 .75598411-.22203564.94126912-.55063007l.94306932.54635457c-.3738676.65327766-1.07767934 1.09360941-1.88433845 1.09360941-.80517621 0-1.50813389-.43864885-1.88253815-1.09000905-.1827795-.31798563-.28735377-.68654107-.28735377-1.07965786 0-1.19826779.9715731-2.16989204 2.16989192-2.16989204zM5.37173712 3.3125562h.24842484v.24864985h.24842484v.24842484h-.24842484v.24864984h-.24842484V3.8096309h-.24864985v-.24842484h.24864985V3.3125562zm.9066157 0h.24864984v.24864985h.24864985v.24842484h-.24864985v.24864984h-.24864984V3.8096309h-.24842484v-.24842484h.24842484V3.3125562z"/>
</svg>
