<?xml version="1.0" encoding="UTF-8" standalone="no"?>
<svg xmlns="http://www.w3.org/2000/svg" width="64" height="64" data-name="Layer 1" viewBox="0 0 63.999997 63.999997">
  <path fill="#e6e6e6" stroke-width=".7870968" d="M.09653699 52.373351V63.9909H10.273699A23.061939 23.061939 0 0 1 .09653699 52.373351zM42.796543 40.252058c0-10.743873-8.658065-21.078455-21.590067-21.527099-9.17755-.314839-16.3165191 3.046064-21.10993901 8.020516v11.200389C3.3551181 28.500702 12.328023 24.218895 19.844798 24.297605c9.397936.110188 16.639228 7.194065 16.702196 15.222452 0 7.658454-3.148387 13.286195-11.806453 14.679358-4.722581.787097-12.10555-2.007097-11.806454-9.138195.173161-3.675743 3.030323-5.753677 6.296775-5.604129-3.211355 4.305419 1.038968 7.453806 4.045678 6.816258a6.6824525 6.6824525 0 0 0 5.234195-6.65884c0-2.707613-2.550195-7.083872-8.870582-6.918581-7.815873.181033-12.735228 5.808775-12.9083893 12.766712-.1889033 8.728904 8.0047753 14.521937 16.4345823 14.592776 12.325938.157418 19.677422-7.941808 19.630197-19.803358z"/>
  <path fill="#e6e6e6" stroke-width=".7870968" d="M.09653699.11798828V18.4967A34.19936 34.19936 0 0 1 21.206476 11.554506c18.103228 0 29.634196 12.67226 29.626326 28.650326 0 11.098067-5.179098 19.449165-13.294067 23.786068H63.97732V.11798828z"/>
</svg>
