<?xml version="1.0" encoding="UTF-8" standalone="no"?>
<svg xmlns="http://www.w3.org/2000/svg" width="64" height="64" viewBox="0 0 64.000003 64.000001">
  <path fill="#e6e6e6" d="M44.83999673 3.28080538h19.15568058L38.39418897 50.57025592s-4.31336008-12.52813012-6.16713562-16.99900054"/>
  <path fill="#e6e6e6" d="M49.56530693 61.75349006h14.43037038V3.28080538c-.01211618 30.55700596-12.85526698 58.47268468-14.43037038 58.47268468zM38.39418897 50.57025592H26.48398403L.17975725 3.28080538c4.6647293-.59369282 13.98207172-1.3933607 18.5983363-1.76896228zM15.43402787 31.89922254C11.48415319 47.50486238.16764107 62.2139049.17975725 62.20178872c13.10970676 0 15.9327767-1.90224026 15.9327767-2.9078832V33.08660818c-.23020742-.38771776-.44829866-.7875517-.67850608-1.18738564z"/>
  <path fill="#e6e6e6" d="M.17975725 3.28080538v58.92098334c7.17277856-11.84962404 11.35286066-19.60397924 15.04829556-30.6539354C6.11668545 15.43333392.17975725 3.28080538.17975725 3.28080538zM48.57178017 59.43929968l.99352676 2.31419038V31.05108994l-.99352676 1.65991666"/>
  <path fill="#e6e6e6" d="M49.51684221 31.11167084v30.54488978l.03634854.09692944c1.0298753 0 14.43037038-33.05293904 14.43037038-58.47268468 0 0-8.1784215 17.05958144-14.46671892 27.83086546z"/>
</svg>
