<?xml version="1.0" encoding="UTF-8" standalone="no"?>
<svg xmlns="http://www.w3.org/2000/svg" width="64" height="64" data-name="Layer 1" viewBox="0 0 64 64">
  <path fill="#e6e6e6" stroke-width="1.44561028" d="M32.738249.20757465A31.803426 31.803426 0 0 0 .16804648 31.159805 31.803426 31.803426 0 1 0 32.738249.20757465zm-.42157 3.27497605a28.521889 28.521889 0 0 1 .002 0 28.521889 28.521889 0 0 1 .419617.00781A28.521889 28.521889 0 0 1 60.466249 32.719226a28.521889 28.521889 0 1 1-28.14957-29.2366753zm8.792471 4.2664466a1.6190834 1.6190834 0 0 0-1.590648 1.8404662c-.115648 2.1250465-.37668 6.3469735-.37668 6.3469735s.04491 2.037589-1.660908 2.037589c-2.15396.0289-3.946365-.115149-3.946365-.115149a6.1293871 6.1293871 0 0 1-3.325722-1.444269l-6.547999-6.91102a2.8912203 2.8912203 0 0 0-3.729727-.5211075A25.861966 25.861966 0 0 0 7.4401327 23.251461c-.679437 1.893749.8827564 2.139079 1.9380519 2.139079H25.278797a5.5222309 5.5222309 0 0 1 4.453812 1.662861c2.081678 2.182869 3.526747 3.628235 3.526747 3.628235s1.272159 1.430543 3.339383 3.598961a5.5222309 5.5222309 0 0 1 1.444268 4.539686s-.778733 15.22313-.778733 15.902566c-.07229 1.055295.100471 2.631447 2.037588 2.053202a25.861966 25.861966 0 0 0 14.889625-11.723945 2.8912203 2.8912203 0 0 0-.318128-3.759l-6.548-6.91102a6.1293871 6.1293871 0 0 1-1.315455-3.395983s-.05869-1.806861.08587-3.946364c.11565-1.70582 2.125417-1.547709 2.125417-1.547709h6.360635c2.587643-.000001 1.807287-2.312783 1.807287-2.312783a25.428283 25.428283 0 0 0-5.595567-9.093036l-.01367.02928a26.642596 26.642596 0 0 0-8.890041-6.173274 1.6190834 1.6190834 0 0 0-.780685-.1932197zM36.795863 21.079205c1.279024.06112 2.804699.774126 4.024432 2.057105 1.951574 2.052767 2.399434 4.756342 1.141754 5.999569-1.257682 1.243223-3.932845.606546-5.884417-1.44622-1.951575-2.052767-2.442371-4.756774-1.184692-5.956632l-.01562-.04293c.47163-.449947 1.151119-.647564 1.918534-.610886z"/>
</svg>
