<?xml version="1.0" encoding="UTF-8" standalone="no"?>
<svg xmlns="http://www.w3.org/2000/svg" width="64" height="64" preserveAspectRatio="xMinYMin meet" viewBox="0 0 6.5536 6.5542169">
  <path fill="#ccc" stroke-width=".02556428" d="M3.2576928.02764319c-1.6573826 0-1.5538985.71873934-1.5538985.71873934l.00184.74463587h1.5816059v.2235596H1.0774396S.0168805 1.5942982.0168805 3.2665846c0 1.6723378.92568213 1.6130288.92568213 1.6130288H1.495011v-.776029s-.029782-.9256822.9109058-.9256822h1.5686747s.8813281.014239.8813281-.8517758V.89422058S4.9897738.02764319 3.2576928.02764319zm-.8720994.50075283a.28427463.28427463 0 0 1 .2845302.2845303.28427463.28427463 0 0 1-.2845302.28453028.28427463.28427463 0 0 1-.2845304-.28453028.28427463.28427463 0 0 1 .2845304-.2845303z"/>
  <path fill="#e6e6e6" stroke-width=".02556428" d="M3.3047564 6.5223474c1.6573826 0 1.5538985-.7187393 1.5538985-.7187393l-.0018413-.7446105H3.2751787v-.2235595h2.2098007s1.060559.1202801 1.060559-1.5520578c0-1.6723121-.925682-1.613003-.925682-1.613003h-.5524437v.7760035s.029782.925682-.910906.925682H2.5878322s-.881328-.014239-.881328.8518015v1.4319312s-.1338291.8665519 1.5982269.8665519zm.8720995-.5007017a.28427463.28427463 0 0 1-.2845303-.2845303.28427463.28427463 0 0 1 .2845303-.2845558.28427463.28427463 0 0 1 .2845303.2845303.28427463.28427463 0 0 1-.2845303.2845302z"/>
</svg>
