<?xml version="1.0" encoding="utf-8"?>
<!-- Generator: Adobe Illustrator 25.4.1, SVG Export Plug-In . SVG Version: 6.00 Build 0)  -->
<svg version="1.1" id="Layer_1" xmlns="http://www.w3.org/2000/svg" xmlns:xlink="http://www.w3.org/1999/xlink" x="0px" y="0px"
	 viewBox="0 0 64 64" style="enable-background:new 0 0 64 64;" xml:space="preserve">
<style type="text/css">
	.st0{fill:#E6E6E6;}
	.st1{filter:url(#Adobe_OpacityMaskFilter);}
	.st2{fill:#FFFFFF;}
	.st3{mask:url(#path27_00000157277462540883793620000016617338385618489242_);fill:#E6E6E6;}
</style>
<g id="g7572" transform="translate(-0.0232537,-44.297248)">
	<g id="g6236" transform="matrix(1.0324977,0,0,1.0324977,-1.0437923,44.339431)">
		<g id="g6228">
			<path id="path37" class="st0" d="M24.2,18.5c0,0.5,0.1,1.2,0.2,1.8c0.3,1.1,0.8,2.2,1.4,3.2c1.4,2.3,3.1,4.2,5,6
				c0.2,0.1,0.3,0.3,0.5,0.4s0.4,0.1,0.6,0s0.4-0.2,0.5-0.4c0.7-0.7,1.3-1.3,1.9-2c0.9-1,1.7-2,2.4-3.1c0.7-1,1.3-2,1.7-3.2
				c0.4-1.1,0.7-2.3,0.5-3.5c-0.2-2-1.1-3.7-2.5-5c-1.7-1.6-3.8-2.2-6-1.9C26.9,11.3,24.2,14.7,24.2,18.5L24.2,18.5z"/>
			<path id="path39" class="st0" d="M43.4,45.9c-0.5,0-1,0-1.5-0.2c-1.5-0.3-2.9-1-3.9-2.3c-0.6-0.8-1.1-1.6-1.6-2.4
				c-0.5-1-1-2.1-1.3-3.2c-0.5-1.3-0.9-2.6-1.2-4c-0.2-0.8,0-1.2,0.9-1.5c1.1-0.3,2.1-0.6,3.2-0.9c1.8-0.4,3.6-0.6,5.5-0.6
				c0.5,0,1,0.1,1.6,0.2c1.5,0.3,2.8,0.9,3.8,2c1.8,1.9,2.5,4.1,2,6.6C50.2,43.4,47,45.9,43.4,45.9z"/>
			<path id="path33" class="st0" d="M20.1,45.9c0.5,0,1,0,1.5-0.2c1.5-0.3,2.9-1,3.9-2.3c0.6-0.8,1.1-1.6,1.6-2.4
				c0.5-1,1-2.1,1.3-3.2c0.5-1.3,0.9-2.6,1.2-4c0.2-0.8,0-1.2-0.9-1.5c-1.1-0.3-2.1-0.6-3.2-0.9c-1.8-0.4-3.6-0.6-5.5-0.6
				c-0.5,0-1,0.1-1.6,0.2c-1.5,0.3-2.8,0.9-3.8,2c-1.8,1.9-2.5,4.1-2,6.6C13.2,43.4,16.4,45.9,20.1,45.9z"/>
		</g>
	</g>
</g>
<defs>
	<filter id="Adobe_OpacityMaskFilter" filterUnits="userSpaceOnUse" x="0" y="0" width="64" height="64">
		
			<feColorMatrix  type="matrix" values="-1 0 0 0 1  0 -1 0 0 1  0 0 -1 0 1  0 0 0 1 0" color-interpolation-filters="sRGB" result="source"/>
		<feFlood  style="flood-color:white;flood-opacity:1" result="back"/>
		<feBlend  in="source" in2="back" mode="normal"/>
	</filter>
</defs>
<mask maskUnits="userSpaceOnUse" x="0" y="0" width="64" height="64" id="path27_00000035495092681313487730000011795602739088911518_">
	<g class="st1">
		<path id="path27_00000165923208433911386760000014706363105368443321_" class="st2" d="M33.1,62.8h-1.8c-0.1,0-0.2,0-0.3,0
			c-1,0-1.9-0.1-2.9-0.3c-1.8-0.2-3.6-0.6-5.3-1.2c-3-0.9-5.7-2.3-8.3-4.1c-2.4-1.6-4.5-3.6-6.3-5.8c-2.2-2.6-3.8-5.5-5-8.7
			c-1.1-2.8-1.7-5.7-1.9-8.8c0-0.2,0-0.3-0.1-0.5v-3.2c0.1-0.1,0.1-0.3,0.1-0.4c0-0.7,0.1-1.4,0.2-2.2C2,24.2,3.1,21,4.6,17.9
			c1.1-2.1,2.4-4.1,4-6c1.5-1.8,3.3-3.4,5.2-4.9c3.1-2.3,6.5-4,10.3-5c1.8-0.5,3.7-0.8,5.5-1c0.3,0,0.7,0,1-0.1h3.1
			c0.2,0.1,0.5,0,0.7,0.1c1.2,0.1,2.5,0.3,3.7,0.5c3.9,0.8,7.4,2.2,10.7,4.3c2.6,1.7,4.8,3.6,6.8,6c1.6,1.9,2.9,3.9,4,6.1
			c1.3,2.6,2.2,5.3,2.8,8.1c0.3,1.5,0.5,3,0.5,4.6c0,0.1,0,0.2,0,0.3v1.8c0,0.1,0,0.2,0,0.4c0,0.3,0,0.6,0,0.9
			c-0.1,1.9-0.4,3.7-0.9,5.6c-0.9,3.4-2.3,6.6-4.3,9.6c-1.5,2.2-3.2,4.2-5.2,5.9s-4.1,3.2-6.5,4.4c-2.7,1.4-5.6,2.3-8.5,2.8
			c-1.1,0.2-2.3,0.3-3.5,0.4C33.8,62.7,33.4,62.7,33.1,62.8L33.1,62.8z"/>
	</g>
</mask>
<path id="path27_00000000944175781937587240000014339712212648606369_" style="mask:url(#path27_00000035495092681313487730000011795602739088911518_);fill:#E6E6E6;" d="
	M33.1,64h-1.9c-0.1,0-0.2,0-0.3,0c-1,0-2-0.1-3-0.3c-1.9-0.2-3.7-0.7-5.5-1.2c-3.1-1-5.9-2.4-8.5-4.2c-2.4-1.7-4.6-3.7-6.5-6
	c-2.2-2.7-4-5.7-5.2-9c-1.1-2.9-1.8-5.9-2-9.1c0-0.2,0-0.3-0.1-0.5v-3.3c0.1-0.1,0.1-0.3,0.1-0.4c0-0.7,0.1-1.5,0.2-2.2
	c0.5-3.6,1.5-6.9,3.2-10.1c1.1-2.2,2.5-4.3,4.1-6.2s3.4-3.6,5.3-5c3.2-2.4,6.8-4.1,10.6-5.2c1.9-0.5,3.8-0.9,5.7-1
	c0.3,0,0.7,0,1.1-0.1h3.2c0.2,0.1,0.5,0,0.8,0.1c1.3,0.1,2.6,0.3,3.8,0.5c4,0.8,7.7,2.3,11.1,4.5c2.7,1.7,5,3.8,7,6.2
	c1.6,1.9,3,4,4.2,6.3c1.3,2.7,2.3,5.5,2.9,8.4c0.3,1.6,0.5,3.1,0.5,4.7c0,0.1,0,0.2,0,0.3v1.8c0,0.1,0,0.2,0,0.4c0,0.3,0,0.6,0,0.9
	c-0.1,1.9-0.4,3.9-0.9,5.8c-0.9,3.6-2.4,6.9-4.5,9.9c-1.5,2.3-3.3,4.3-5.4,6.1c-2,1.8-4.3,3.3-6.7,4.5c-2.8,1.4-5.7,2.4-8.8,2.9
	c-1.2,0.2-2.4,0.3-3.6,0.4C33.8,63.9,33.5,63.9,33.1,64L33.1,64z"/>
</svg>
