<?xml version="1.0" encoding="utf-8"?>
<!-- Generator: Adobe Illustrator 25.4.1, SVG Export Plug-In . SVG Version: 6.00 Build 0)  -->
<svg version="1.1" xmlns="http://www.w3.org/2000/svg" xmlns:xlink="http://www.w3.org/1999/xlink" x="0px" y="0px"
	 viewBox="0 0 64 64" style="enable-background:new 0 0 64 64;" xml:space="preserve">
<style type="text/css">
	.st0{filter:url(#Adobe_OpacityMaskFilter);}
	.st1{fill:#FFFFFF;}
	.st2{mask:url(#SVGID_1_);fill:#E6E6E6;}
</style>
<g id="Layer_2">
</g>
<g id="Layer_1">
	<defs>
		<filter id="Adobe_OpacityMaskFilter" filterUnits="userSpaceOnUse" x="0" y="0" width="64" height="64">
			
				<feColorMatrix  type="matrix" values="-1 0 0 0 1  0 -1 0 0 1  0 0 -1 0 1  0 0 0 1 0" color-interpolation-filters="sRGB" result="source"/>
			<feFlood  style="flood-color:white;flood-opacity:1" result="back"/>
			<feBlend  in="source" in2="back" mode="normal"/>
		</filter>
	</defs>
	<mask maskUnits="userSpaceOnUse" x="0" y="0" width="64" height="64" id="SVGID_1_">
		<g class="st0">
			<path class="st1" d="M17.5,35.5l-7.9,0.8c0.5,2,1.5,3.6,3.1,4.7c1.6,1.1,4.3,1.7,8.2,1.7c2.7,0,4.9-0.4,6.5-1
				c1.5-0.7,2.7-1.6,3.5-2.8c0.7-1.2,1.1-2.4,1.1-3.6c0-1.2-0.4-2.3-1-3.4c-0.7-1-1.7-1.8-3-2.4s-3.3-1-6-1.3
				c-1.8-0.2-2.9-0.5-3.5-0.7c-0.5-0.3-0.8-0.7-0.8-1.2s0.2-0.9,0.6-1.2s1.1-0.5,2-0.5s1.7,0.2,2.3,0.6c0.5,0.3,0.8,0.8,1,1.5
				l7.6-0.8c-0.5-1.4-1.2-2.5-2-3.3s-1.8-1.4-3-1.8s-3-0.6-5.6-0.6c-2.4,0-4.3,0.3-5.7,0.8s-2.5,1.2-3.3,2.3c-0.8,1-1.2,2.2-1.2,3.6
				c0,1.3,0.4,2.4,1.1,3.5c0.7,1,1.7,1.7,2.7,2.1c1.1,0.4,3,0.9,5.8,1.4c1.9,0.3,3,0.6,3.5,0.8c0.6,0.3,0.9,0.8,0.9,1.4
				c0,0.5-0.2,1-0.7,1.3c-0.6,0.5-1.4,0.7-2.5,0.7c-1,0-1.8-0.2-2.4-0.6C18.3,37.1,17.9,36.4,17.5,35.5z M33.6,31.2
				c0-6.3,5-11.5,12-11.5c3.3,0,5.7,0.8,7.2,1.4l0.1,0.1v5.5l-0.3-0.2C51.1,26,49,25.1,46,25.1c-2.1,0-3.7,0.7-4.7,1.8
				s-1.7,2.6-1.7,4.2c0,3.3,2.3,6,6.1,6c0.7,0,1.5-0.1,2.1-0.2v-5.6h5.8v9.5L53.5,41c-2.1,1-5,1.7-7.7,1.7
				C38.6,42.7,33.6,37.7,33.6,31.2L33.6,31.2z"/>
		</g>
	</mask>
	<circle class="st2" cx="32" cy="32" r="32"/>
</g>
</svg>
