<?xml version="1.0" encoding="utf-8"?>
<!-- Generator: Adobe Illustrator 25.4.1, SVG Export Plug-In . SVG Version: 6.00 Build 0)  -->
<svg version="1.1" id="Layer_1" xmlns="http://www.w3.org/2000/svg" xmlns:xlink="http://www.w3.org/1999/xlink" x="0px" y="0px"
	 viewBox="0 0 242.8 250" style="enable-background:new 0 0 242.8 250;" xml:space="preserve">
<style type="text/css">
	.st0{fill:#F47836;}
</style>
<path class="st0" d="M161.4,136.7c-5.1-25.2-31.1-55-59.6-61.4C72.2,68.6,52.2,68.3,29,84c-6.9,4.6-18.2,12.3-29,24.2v39.1
	c15.2-32.9,49.6-60.1,88.1-50.4c65.5,16.7,55,63,47.3,81.7c-14.1,33.7-66,48.3-82.2,16.2c-17.5-34.9,21.3-40.9,21.3-40.9
	s-10,9.8,2.6,22.6c8.7,9,25.4,0.8,31.3-14.9c5.1-13.9-5.9-32.9-29.8-34.9c-20-1.8-50.1,13.4-53.2,44.2c-2.8,29,10,41.1,29,54
	c18.8,12.8,58.8,17.7,82-4.9C161.1,195.5,168.3,170.4,161.4,136.7 M0,0v76.6c11.6-10,21.1-15.2,21.3-15.4
	C63.2,37,100,48.8,121.5,55.8c34.2,10.8,61.2,37.8,72.7,65.5c13.6,32.1,1.8,93.8-43.9,124.9c-2.1,1.3-4.1,2.6-5.9,3.6h98.4V0H0z
	 M0,208.6v29.5c1.5,1.3,3.1,2.3,4.4,3.3c-1.3-0.5-2.8-1.3-4.4-2.1V250h42.7c-3.1-1.8-6.2-3.3-8.5-5.1C21.6,235.9,8,223.8,0,208.6z"
	/>
</svg>
