<?xml version="1.0" encoding="utf-8"?>
<!-- Generator: Adobe Illustrator 25.4.1, SVG Export Plug-In . SVG Version: 6.00 Build 0)  -->
<svg version="1.1" id="Layer_1" xmlns="http://www.w3.org/2000/svg" xmlns:xlink="http://www.w3.org/1999/xlink" x="0px" y="0px"
	 viewBox="0 0 716 716" style="enable-background:new 0 0 716 716;" xml:space="preserve">
<style type="text/css">
	.st0{fill:#FDC842;}
</style>
<g>
	<path class="st0" d="M358,716C160.6,716,0,555.4,0,358S160.6,0,358,0s358,160.6,358,358S555.4,716,358,716L358,716z M358,38.7
		C181.9,38.7,38.7,181.9,38.7,358S181.9,677.3,358,677.3S677.3,534.1,677.3,358S534.1,38.7,358,38.7L358,38.7z"/>
	<path class="st0" d="M326.6,297.4l93.2,100.5c3.9,3.9,6.2,9,6.2,14.4l-8.4,199.3c-0.2,15.7,10.1,28.1,24.9,23
		c88.1-30.7,142-79.2,168.6-142.6c3.9-9,2.8-19.3-3.9-26.4L526.2,379c-6.2-6.4-9.7-15-9.7-24.1l-0.6-48.1
		c0-12.5,10.1-22.3,22.5-22.3l65.1,0.9c30.7,0,33.3-11.4,28.8-23.8c-30.3-84.2-85-143.7-168.4-175c-9.4-3.7-19.8,3-20.2,13.1
		l-5.4,84.8c-0.4,9.2-7.9,16.3-17,16.3l-45.5-0.2c-12,0-22.3-5.8-27.3-10.7l-92.1-92.1c-5.6-5.4-13.7-7.1-20.8-3.9
		C161.7,127.6,111,182.1,81.4,259.2c-4.5,12,5.2,24.7,18,24.7l198.2,1.3C308.4,285.6,318.9,289.9,326.6,297.4L326.6,297.4z
		 M391.7,244.4c12.7-12.2,43-6.2,63.4,14.8c20.2,21,32.4,50.9,13.3,66.8c-13.5,11.2-35.9,7.1-58-12
		C385.7,292.9,377.3,258.4,391.7,244.4L391.7,244.4z"/>
</g>
</svg>
