<?xml version="1.0" encoding="utf-8"?>
<!-- Generator: Adobe Illustrator 25.4.1, SVG Export Plug-In . SVG Version: 6.00 Build 0)  -->
<svg version="1.1" id="Layer_1" xmlns="http://www.w3.org/2000/svg" xmlns:xlink="http://www.w3.org/1999/xlink" x="0px" y="0px"
	 viewBox="0 0 64 64" style="enable-background:new 0 0 64 64;" xml:space="preserve">
<style type="text/css">
	.st0{fill-rule:evenodd;clip-rule:evenodd;fill:#E6E6E6;}
</style>
<g>
	<path class="st0" d="M51,36.6L51,36.6c-0.6,2.7-3,9.5-10.8,13.2L37,46.3l-5.3,5.3c-6.1-0.1-11.8-3-15.5-7.9
		c0.6,0.2,1.1,0.3,1.7,0.3c0.9,0,1.8-0.3,1.8-1.8V27.8c0-1.3-1-2.4-2.3-2.4c-0.2,0-0.5,0-0.7,0.1c-2.5,0.6-4.4,6.7-4.4,6.7
		c-0.1-5.7,2.4-11.2,6.7-14.9c3.7-3.1,7.2-4.2,9.9-4.6c-2.7,1.5-4.2,4-4.2,6.1c0,3.4,2,3,2.6,2.5v19.4c0.1,0.2,0.2,0.5,0.4,0.7
		c0.5,0.8,1.4,1.2,2.3,1.2c2,0,4.7-2.3,4.7-2.3V24.5c0-1.6-1.2-3.5-2.4-4.2c0,0,2.2-0.4,4,0.9l0,0c0.3-0.4,0.7-0.8,1-1.1
		c4-3.9,7.8-5.1,11-5.6l0,0c0,0-5.7,4.5-5.7,10.6c0,4.5,0.1,15.5,0.1,15.5C45,42.5,48.2,39.5,51,36.6z"/>
	<path class="st0" d="M32,0C14.3,0,0,14.3,0,32s14.3,32,32,32c17.7,0,32-14.3,32-32c0,0,0,0,0,0C64,14.3,49.7,0,32,0C32,0,32,0,32,0
		z M32,62.7C15,62.7,1.3,49,1.3,32C1.3,15,15,1.3,32,1.3S62.7,15,62.7,32c0,0,0,0,0,0C62.7,49,49,62.7,32,62.7z"/>
</g>
</svg>
