<?xml version="1.0" encoding="utf-8"?>
<!-- Generator: Adobe Illustrator 25.4.1, SVG Export Plug-In . SVG Version: 6.00 Build 0)  -->
<svg version="1.1" id="Layer_1" xmlns="http://www.w3.org/2000/svg" xmlns:xlink="http://www.w3.org/1999/xlink" x="0px" y="0px"
	 viewBox="0 0 142.4 142.8" style="enable-background:new 0 0 142.4 142.8;" xml:space="preserve">
<style type="text/css">
	.st0{fill:#00ADEF;}
</style>
<g>
	<path class="st0" d="M65.3,11.2C90.9,7.3,116.7,3.6,142.4,0c0,22.6,0,45.1,0,67.7c-25.7,0.1-51.5,0.5-77.2,0.6
		C65.2,49.2,65.2,30.2,65.3,11.2z M0,20.3c19.3-3,38.8-5.6,58.2-8c0,18.7,0,37.4,0,56.1c-19.4,0-38.8,0.3-58.2,0.2V20.3z M0,74.5
		c19.4-0.1,38.8,0.2,58.2,0.2c0,18.8,0,37.5,0,56.3c-19.4-2.9-38.8-5.4-58.2-8V74.5z M65.1,75.3h77.3c0,22.5,0,45,0,67.5
		c-25.7-3.8-51.4-7.4-77.2-10.9C65.2,113,65.2,94.2,65.1,75.3z"/>
</g>
</svg>
